<svg width="320" height="42" viewBox="0 0 320 42" fill="none" xmlns="http://www.w3.org/2000/svg">
<path fill-rule="evenodd" clip-rule="evenodd" d="M293.367 23.5571C296.891 25.2547 300.529 26.0998 303.603 25.9332C303.622 25.9332 303.64 25.9302 303.658 25.9302L303.878 3.35719C303.887 2.56018 303.023 2.07986 302.384 2.52565L284.003 15.3334C285.49 18.2632 288.93 21.4183 293.366 23.5571H293.367Z" fill="#00C6FB"/>
<path fill-rule="evenodd" clip-rule="evenodd" d="M302.837 28.0975C299.629 28.0975 295.995 27.1879 292.49 25.5008C287.655 23.1743 284.02 19.8512 282.273 16.5371L272.929 23.0513C272.198 23.5601 272.465 24.7323 273.334 24.8539L289.029 27.0603C289.952 27.1909 290.798 27.6622 291.412 28.3857L301.839 40.7011C302.419 41.3855 303.511 40.9698 303.519 40.0572L303.637 28.075C303.373 28.0915 303.107 28.0975 302.837 28.0975Z" fill="#00C6FB"/>
<path fill-rule="evenodd" clip-rule="evenodd" d="M302.837 26.3886C299.629 26.3886 295.995 25.479 292.49 23.7919C284.246 19.8219 279.48 12.9655 281.639 8.1789C283.799 3.39534 291.949 2.75893 300.193 6.73197C302.889 8.03181 305.335 9.71588 307.262 11.6041C307.678 12.0108 307.696 12.6923 307.303 13.1216C306.905 13.5508 306.249 13.5689 305.834 13.1636C304.067 11.4315 301.814 9.88249 299.316 8.67872C292.365 5.33007 285.132 5.51919 283.521 9.08848C281.909 12.6578 286.419 18.4995 293.367 21.8497C296.891 23.5457 300.526 24.3908 303.603 24.2242C306.445 24.0711 308.415 23.0819 309.16 21.4384C309.931 19.7258 309.185 17.773 308.423 16.4312C308.131 15.9194 308.296 15.2634 308.792 14.9617C309.288 14.6615 309.922 14.8312 310.214 15.343C311.652 17.8616 311.947 20.3487 311.044 22.3435C309.963 24.7375 307.359 26.1649 303.714 26.3646C303.422 26.3811 303.132 26.3871 302.837 26.3871V26.3886Z" fill="#00C6FB"/>
<path d="M23.1177 3.64733C20.249 1.08218 16.8829 0 12.6901 0C6.78592 0 0.936858 2.67922 0.936858 9.06281C0.936858 15.6745 7.2819 17.8404 12.3594 18.0686C16.0562 18.1827 16.9946 19.2648 16.9946 20.5767C17.0497 22.0581 15.2281 23.0277 12.9105 22.9707C10.0418 22.9137 6.78591 22.2863 3.41976 19.4375L0 25.2507C4.63516 29.2402 8.77284 30.0388 12.8003 30.0388C21.4629 30.0388 24.774 25.1366 24.7188 20.5767C24.6637 12.8242 18.2085 11.685 12.8554 11.5139C10.2072 11.4568 8.82794 10.6028 8.82794 9.06281C8.82794 7.69543 10.1521 6.7258 12.7452 6.7258C15.2281 6.7258 17.1599 7.29617 19.2019 8.77762L23.1192 3.64883L23.1177 3.64733Z" fill="white"/>
<path d="M42.5952 22.1709C38.5126 22.1709 35.9195 19.1495 35.9195 14.9333C35.9195 10.8867 38.3473 7.69568 42.5952 7.69568C46.1818 7.69568 49.9337 9.57638 49.9337 14.9333C49.9337 19.6643 46.2369 22.1709 42.5952 22.1709ZM58.0452 41.3788V0.855786H50.9272L50.4312 4.44609C47.8932 1.08244 44.8026 0.342468 41.3813 0.342468C33.3815 0.342468 27.9182 6.15569 27.9182 14.9333C27.9182 24.0532 33.4902 29.5812 41.4915 29.5812C44.3602 29.5812 47.7264 28.556 50.0439 25.5916V41.3803H58.0452V41.3788Z" fill="white"/>
<path d="M64.3899 0.798126V15.7312C64.3899 26.6747 69.6313 29.525 75.7559 29.525C79.0669 29.5821 82.1575 28.6125 84.5838 25.2503L84.8594 28.9547H92.0325V0.798126H84.1981V15.332C84.1981 18.9793 81.7152 22.2859 78.0183 22.2289C74.2113 22.2289 72.3897 20.0059 72.3897 15.6742V0.798126H64.3884H64.3899Z" fill="white"/>
<path d="M119.567 4.04651C118.132 1.5384 114.931 0.17103 111.51 0.17103C103.454 0.0569567 97.2205 5.52946 97.2205 14.876C97.2205 24.1654 103.123 29.6379 111.29 29.5809C113.938 29.5238 117.855 28.3831 119.677 25.4202L120.118 28.9535H127.291C127.291 19.6055 127.291 10.1449 127.291 0.796919H119.842L119.567 4.04651ZM112.338 7.41017C117.084 7.41017 119.567 11.1145 119.567 15.1611C119.567 18.6944 116.808 22.2847 112.338 22.2847C108.366 22.2847 105.165 19.5499 105.165 14.876C105.165 10.202 108.366 7.41017 112.338 7.41017Z" fill="white"/>
<path d="M134.023 0.854205V28.9522H141.968V14.3043C141.968 10.0866 144.892 7.80667 148.313 7.80667C149.968 7.80667 151.347 8.26296 152.671 9.23108L155.982 2.73341C154.051 0.96678 151.9 0.168274 149.305 0.168274C146.271 0.168274 143.843 1.30749 142.022 3.92968L141.416 0.852703H134.022L134.023 0.854205Z" fill="white"/>
<path d="M184.895 17.5524C186.605 6.04 180.537 0.0541687 171.267 0.0541687C162.384 0.0541687 156.81 6.0385 156.81 14.588C156.81 23.5938 162.217 29.5781 172.094 29.5781C176.176 29.5781 180.866 28.3803 183.79 25.4174L179.322 20.2871C177.392 21.9967 174.411 22.5101 172.259 22.5101C167.791 22.5101 165.251 20.2871 164.865 17.5509H184.894L184.895 17.5524ZM164.867 11.568C165.64 8.77475 168.066 7.06516 171.267 7.06516C174.578 7.06516 177.612 8.48957 177.777 11.568H164.867Z" fill="white"/>
<path d="M215.575 28.9537V13.8495C215.575 10.6584 217.45 7.86514 220.596 7.86514C223.795 7.86514 224.733 10.2021 224.733 13.7354V28.9537H232.733V13.5643C232.733 3.07706 227.547 0.114166 221.863 0.114166C217.836 0.114166 215.243 1.59561 212.815 5.41405C211.05 1.31042 207.849 0.169701 204.869 0.169701C202.551 0.169701 199.407 0.911168 197.697 3.98814L197.144 0.797093H190.193V28.9537H198.138V13.9065C198.138 10.7155 199.903 7.69402 203.049 7.69402C206.303 7.69402 207.739 10.1451 207.739 13.8495V28.9537H215.573H215.575Z" fill="white"/>
<path d="M265.621 17.5524C267.331 6.04 261.263 0.0541687 251.992 0.0541687C243.108 0.0541687 237.536 6.0385 237.536 14.588C237.536 23.5938 242.942 29.5781 252.819 29.5781C256.901 29.5781 261.593 28.3803 264.517 25.4174L260.049 20.2871C258.117 21.9967 255.138 22.5101 252.986 22.5101C248.517 22.5101 245.979 20.2871 245.592 17.5509H265.621V17.5524ZM245.592 11.568C246.365 8.77475 248.793 7.06516 251.992 7.06516C255.302 7.06516 258.337 8.48957 258.503 11.568H245.591H245.592Z" fill="white"/>
<path d="M313.195 0V1.12272H311.322V6.31604H310V1.12272H308.12V0H313.195Z" fill="white"/>
<path d="M318.111 0H320V6.31604H318.773V2.04431C318.773 1.92123 318.773 1.74561 318.782 1.52647C318.782 1.30733 318.782 1.14074 318.782 1.01766L317.597 6.31604H316.327L315.152 1.01766C315.152 1.14074 315.152 1.30733 315.152 1.52647C315.161 1.74561 315.161 1.92123 315.161 2.04431V6.31604H313.941V0H315.838L316.979 4.96518L318.111 0Z" fill="white"/>
</svg>
